<svg width="36" height="24" viewBox="0 0 36 24" fill="none" xmlns="http://www.w3.org/2000/svg">
<g id="icon-adidas-cash-on-delivery">
<path id="Union" fill-rule="evenodd" clip-rule="evenodd" d="M5 0H36V10V19.8262H5V0ZM7.41031 14.7146V5.11142L10.3593 2.16243H30.73L33.68 5.1111V14.7149L30.73 17.6637H10.3594L7.41031 14.7146ZM0 6.26079H2.15856V21.8722H28.57V24H0V6.26079Z" fill="black"/>
<path id="Subtract" fill-rule="evenodd" clip-rule="evenodd" d="M14.4 10.1491C14.4 6.90403 17.2649 4.27335 20.51 4.27335C23.7551 4.27335 26.38 6.90403 26.38 10.1491C26.38 13.3943 23.7551 16.025 20.51 16.025C17.2649 16.025 14.4 13.3943 14.4 10.1491ZM20.51 6.68848C18.5988 6.68848 17.05 8.23788 17.05 10.1492C17.05 12.0604 18.5988 13.6098 20.51 13.6098C22.4213 13.6098 23.97 12.0604 23.97 10.1492C23.97 8.23788 22.4213 6.68848 20.51 6.68848Z" fill="black"/>
</g>
</svg>
